# xmcd CD database file
# Copyright (C) 1995-1998 Ti Kan
#
# Track frame offsets:
#	150
#	24446
#	41791
#	66603
#	80613
#	98466
#	120405
#	155521
#	187040
#	215957
#	238785
#	266415
#	281640
#
# Disc length: 4223 seconds
#
# Revision: 1
# Processed by: cddbd v1.4b41PL1 Copyright (c) Steve Scherf et al.
# Submitted via: CDex 1.30
#
DISCID=be107d0d
DTITLE=Roy Peters - ...Hold the wind...
DYEAR=199
DGENRE=Native American
TTITLE0=Hold the Wind (Windhammer)
TTITLE1=Eagle Spirits Call
TTITLE2=Long Trail Home
TTITLE3=Deep River- Strong Heart
TTITLE4=Kum Ba Ya
TTITLE5=Under My Blanket
TTITLE6=Cry of the Wolf
TTITLE7=Many Voices - One Song
TTITLE8=Ya Way
TTITLE9=She Still Dances
TTITLE10=River Song
TTITLE11=Voice of the Wind
TTITLE12=Ka Lu Ta L
EXTD=\nYEAR: 199?  ID3G:  64
EXTT0=
EXTT1=
EXTT2=
EXTT3=
EXTT4=
EXTT5=
EXTT6=
EXTT7=
EXTT8=
EXTT9=
EXTT10=
EXTT11=
EXTT12=
PLAYORDER=
